<svg width="153" height="133" viewBox="0 0 153 133" fill="none" xmlns="http://www.w3.org/2000/svg">
<path fill-rule="evenodd" clip-rule="evenodd" d="M79.4468 3.46393C93.4512 2.42496 107.857 -3.3015 120.538 2.70057C134.227 9.179 143.97 22.2656 149.132 36.4453C154.406 50.9316 154.135 66.9186 149.241 81.5365C144.373 96.0792 134.444 108.211 122.056 117.324C109.586 126.497 94.9095 134.059 79.4468 132.878C64.4848 131.735 53.991 119.188 41.3413 111.156C27.6096 102.437 8.43727 98.9282 2.32052 83.9067C-3.84797 68.7582 3.38931 51.3114 11.0944 36.8762C17.9044 24.1178 29.5471 14.8544 42.5785 8.48433C53.9907 2.90578 66.7668 4.40464 79.4468 3.46393Z" fill="#00CEAF" fill-opacity="0.5"/>
</svg>
