<svg width="186" height="222" viewBox="0 0 186 222" fill="none" xmlns="http://www.w3.org/2000/svg">
<path fill-rule="evenodd" clip-rule="evenodd" d="M95.7491 0.575847C113.039 3.75128 123.491 21.105 136.747 32.6308C147.251 41.7647 157.565 50.6178 166.016 61.6729C174.346 72.5696 185.465 83.3497 185.988 97.0463C186.516 110.866 169.534 120.434 168.787 134.244C167.823 152.057 185.794 168.38 181.196 185.619C176.835 201.97 161.994 216.554 145.644 221.018C128.928 225.583 112.605 212.971 95.7491 208.951C82.395 205.767 69.6256 202.309 56.1512 199.677C38.5024 196.231 14.0757 205.544 3.59878 190.955C-7.15298 175.983 9.45804 155.247 11.0666 136.897C12.1999 123.969 12.0196 111.432 11.7069 98.458C11.2998 81.5736 2.31592 64.045 8.93565 48.5018C15.5195 33.0428 32.0527 24.2372 46.7795 16.1072C61.9575 7.72809 78.6906 -2.55715 95.7491 0.575847Z" fill="#00CEAF" fill-opacity="0.5"/>
</svg>
