<svg width="154" height="167" viewBox="0 0 154 167" fill="none" xmlns="http://www.w3.org/2000/svg">
<path fill-rule="evenodd" clip-rule="evenodd" d="M74.841 9.22078e-05C92.1872 0.0325229 107.86 9.18174 121.609 19.7743C135.036 30.1192 146.827 42.9806 151.712 59.2257C156.533 75.2586 152.956 92.0571 148.169 108.1C143.269 124.516 137.365 141.306 124.018 152.025C110.317 163.028 92.4019 166.791 74.841 166.989C57.1202 167.189 38.3134 164.688 24.8526 153.144C11.8205 141.967 9.02844 123.677 4.89254 107C1.05969 91.5462 -2.18609 75.892 1.87481 60.4963C6.10291 44.4667 15.1942 30.1719 27.9462 19.5992C41.3207 8.51039 57.478 -0.0323701 74.841 9.22078e-05Z" fill="#00CEAF" fill-opacity="0.5"/>
</svg>
