<svg width="120" height="120" viewBox="0 0 120 120" fill="none" xmlns="http://www.w3.org/2000/svg">
<path d="M79.1047 116.876C78.4798 117.087 77.8509 117.292 77.2178 117.48C77.8529 117.29 78.4798 117.085 79.1047 116.876Z" fill="#F9EDE0"/>
<path d="M82.2392 115.726C81.5648 115.994 80.8903 116.259 80.2034 116.503C80.8903 116.257 81.5668 115.994 82.2392 115.726Z" fill="#F9EDE0"/>
<path d="M60 120C93.1371 120 120 93.1371 120 60C120 26.8629 93.1371 0 60 0C26.8629 0 0 26.8629 0 60C0 93.1371 26.8629 120 60 120Z" fill="#EFECE8"/>
<path d="M76.0077 117.823C75.3953 117.993 74.7788 118.154 74.156 118.306C74.7788 118.154 75.3953 117.993 76.0077 117.823Z" fill="#F9EDE0"/>
<path d="M55.6533 119.826C54.9209 119.774 54.1906 119.719 53.4685 119.64C54.1926 119.719 54.923 119.774 55.6533 119.826Z" fill="#F9EDE0"/>
<path d="M45.8422 118.303C45.2215 118.152 44.605 117.991 43.9905 117.821C44.605 117.993 45.2215 118.154 45.8422 118.303Z" fill="#F9EDE0"/>
<path d="M52.2271 119.483C51.5713 119.398 50.9175 119.309 50.2678 119.203C50.9154 119.309 51.5713 119.396 52.2271 119.483Z" fill="#F9EDE0"/>
<path d="M60.0001 120C58.8953 120 57.8008 119.965 56.7104 119.907C57.8008 119.965 58.8953 120 60.0001 120Z" fill="#F9EDE0"/>
<path d="M48.9871 118.974C48.3582 118.858 47.7313 118.734 47.1106 118.597C47.7313 118.734 48.3582 118.858 48.9871 118.974Z" fill="#F9EDE0"/>
<path d="M36.8816 115.378C35.9485 114.987 35.0257 114.577 34.1174 114.143C35.0278 114.577 35.9505 114.989 36.8816 115.378Z" fill="#F9EDE0"/>
<path d="M39.7946 116.503C39.1098 116.257 38.4333 115.994 37.7588 115.726C38.4333 115.994 39.1098 116.257 39.7946 116.503Z" fill="#F9EDE0"/>
<path d="M63.2897 119.907C62.1993 119.965 61.1048 120 60 120C61.1048 120 62.1993 119.965 63.2897 119.907Z" fill="#F9EDE0"/>
<path d="M66.5317 119.64C65.8076 119.719 65.0773 119.774 64.3469 119.826C65.0773 119.774 65.8076 119.719 66.5317 119.64Z" fill="#F9EDE0"/>
<path d="M72.8919 118.597C72.2692 118.734 71.6443 118.858 71.0154 118.974C71.6423 118.858 72.2692 118.734 72.8919 118.597Z" fill="#F9EDE0"/>
<path d="M69.7347 119.201C69.085 119.307 68.4313 119.396 67.7754 119.481C68.4292 119.396 69.085 119.309 69.7347 119.201Z" fill="#F9EDE0"/>
<path d="M85.8704 114.147C84.9662 114.579 84.0476 114.989 83.1187 115.378C84.0476 114.989 84.9662 114.581 85.8704 114.147Z" fill="#F9EDE0"/>
<path d="M42.7822 117.48C42.147 117.29 41.5201 117.085 40.8953 116.876C41.5201 117.085 42.147 117.29 42.7822 117.48Z" fill="#F9EDE0"/>
<path d="M83.1187 115.378C82.829 115.5 82.5332 115.608 82.2415 115.723C82.5311 115.608 82.827 115.5 83.1187 115.378Z" fill="#F9EDE0"/>
<path d="M85.9531 114.11C85.9262 114.122 85.8973 114.134 85.8704 114.147C85.8973 114.134 85.9262 114.124 85.9531 114.11Z" fill="#F9EDE0"/>
<path d="M47.1082 118.597C46.6841 118.504 46.262 118.407 45.842 118.306C46.262 118.407 46.6841 118.504 47.1082 118.597Z" fill="#F9EDE0"/>
<path d="M50.2656 119.201C49.8373 119.131 49.4111 119.052 48.9849 118.974C49.4131 119.052 49.8373 119.133 50.2656 119.201Z" fill="#F9EDE0"/>
<path d="M56.7106 119.907C56.3568 119.888 56.005 119.851 55.6533 119.826C56.0071 119.851 56.3568 119.888 56.7106 119.907Z" fill="#F9EDE0"/>
<path d="M53.4684 119.64C53.0526 119.594 52.6408 119.537 52.2271 119.483C52.6408 119.537 53.0526 119.594 53.4684 119.64Z" fill="#F9EDE0"/>
<path d="M34.1194 114.143C34.0967 114.133 34.0718 114.123 34.0491 114.112C34.0718 114.123 34.0967 114.133 34.1194 114.143Z" fill="#F9EDE0"/>
<path d="M64.3468 119.826C63.993 119.851 63.6433 119.888 63.2896 119.907C63.6433 119.888 63.993 119.851 64.3468 119.826Z" fill="#F9EDE0"/>
<path d="M77.2181 117.48C76.8168 117.6 76.4133 117.712 76.0078 117.823C76.4133 117.712 76.8168 117.6 77.2181 117.48Z" fill="#F9EDE0"/>
<path d="M80.2058 116.503C79.8417 116.634 79.4734 116.752 79.1072 116.876C79.4734 116.752 79.8417 116.634 80.2058 116.503Z" fill="#F9EDE0"/>
<path d="M37.7608 115.726C37.4691 115.61 37.1732 115.5 36.8835 115.38C37.1732 115.5 37.4691 115.608 37.7608 115.726Z" fill="#F9EDE0"/>
<path d="M40.8953 116.876C40.529 116.752 40.1587 116.634 39.7966 116.503C40.1587 116.634 40.527 116.752 40.8953 116.876Z" fill="#F9EDE0"/>
<path d="M67.7734 119.483C67.3596 119.537 66.9478 119.597 66.532 119.64C66.9478 119.594 67.3596 119.537 67.7734 119.483Z" fill="#F9EDE0"/>
<path d="M74.1578 118.303C73.7378 118.405 73.3157 118.502 72.8916 118.595C73.3157 118.504 73.7378 118.407 74.1578 118.303Z" fill="#F9EDE0"/>
<path d="M71.0134 118.974C70.5872 119.052 70.163 119.133 69.7327 119.201C70.163 119.133 70.5872 119.052 71.0134 118.974Z" fill="#F9EDE0"/>
<path d="M43.9926 117.823C43.5891 117.712 43.1836 117.6 42.7822 117.48C43.1836 117.6 43.5871 117.712 43.9926 117.823Z" fill="#F9EDE0"/>
<path d="M73.7338 64.1255C80.4187 59.6752 84.8276 52.08 84.8276 43.4483C84.8276 29.7372 73.7111 18.6207 60 18.6207C46.289 18.6207 35.1724 29.7372 35.1724 43.4483C35.1724 52.08 39.5814 59.6752 46.2662 64.1255C46.2662 64.1255 46.2683 64.1276 46.2704 64.1276C46.2683 64.1276 46.2683 64.1255 46.2683 64.1255C30.2669 68.9483 17.8076 81.9352 13.7959 98.2738L13.798 98.2759C14.4518 99.0641 15.1304 99.8338 15.8235 100.589C15.9911 100.773 16.1669 100.949 16.3387 101.129C16.8724 101.696 17.4124 102.254 17.9669 102.801C18.1966 103.026 18.4304 103.243 18.6642 103.465C19.1773 103.953 19.6966 104.435 20.2262 104.905C20.489 105.137 20.7559 105.366 21.0207 105.594C21.54 106.039 22.0656 106.475 22.6014 106.901C22.8828 107.127 23.1662 107.348 23.4497 107.57C23.9918 107.988 24.5421 108.393 25.0987 108.79C25.3862 108.995 25.6697 109.204 25.9614 109.405C26.549 109.81 27.1469 110.199 27.749 110.584C28.02 110.756 28.2849 110.934 28.558 111.103C29.2531 111.532 29.9607 111.941 30.6745 112.343C30.8628 112.448 31.0469 112.562 31.2373 112.666C32.16 113.17 33.0973 113.654 34.049 114.112C34.0718 114.122 34.0966 114.132 34.1193 114.143C35.0276 114.577 35.9504 114.989 36.8835 115.378C37.1731 115.5 37.469 115.608 37.7607 115.723C38.4352 115.992 39.1097 116.257 39.7966 116.501C40.1607 116.632 40.529 116.75 40.8952 116.874C41.52 117.085 42.149 117.29 42.7821 117.478C43.1835 117.598 43.5869 117.71 43.9924 117.821C44.6049 117.991 45.2214 118.152 45.8442 118.303C46.2642 118.405 46.6862 118.502 47.1104 118.595C47.7331 118.732 48.358 118.856 48.9869 118.972C49.4131 119.05 49.8373 119.131 50.2676 119.199C50.9173 119.305 51.5711 119.394 52.2269 119.479C52.6407 119.532 53.0524 119.592 53.4683 119.636C54.1924 119.714 54.9228 119.77 55.6531 119.822C56.0069 119.847 56.3566 119.884 56.7104 119.903C57.8007 119.965 58.8952 120 60 120C61.1049 120 62.1993 119.965 63.2897 119.907C63.6435 119.888 63.9952 119.851 64.3469 119.826C65.0793 119.774 65.8097 119.719 66.5318 119.64C66.9476 119.594 67.3593 119.537 67.7731 119.483C68.429 119.398 69.0828 119.309 69.7324 119.203C70.1607 119.133 70.5869 119.054 71.0131 118.976C71.6421 118.86 72.269 118.736 72.8897 118.599C73.3138 118.506 73.7359 118.409 74.1559 118.308C74.7766 118.157 75.3931 117.995 76.0076 117.826C76.4111 117.714 76.8166 117.602 77.218 117.482C77.8531 117.292 78.48 117.087 79.1049 116.878C79.4711 116.754 79.8414 116.636 80.2035 116.506C80.8883 116.259 81.5649 115.997 82.2393 115.728C82.5311 115.612 82.8269 115.502 83.1166 115.382C84.0456 114.993 84.9642 114.586 85.8683 114.151C85.8952 114.139 85.9242 114.126 85.9511 114.114C86.9028 113.657 87.84 113.172 88.7628 112.668C88.9531 112.564 89.1373 112.45 89.3256 112.345C90.0393 111.943 90.7469 111.534 91.4421 111.106C91.7152 110.938 91.9821 110.76 92.2511 110.586C92.8531 110.201 93.4511 109.81 94.0387 109.407C94.3283 109.206 94.6138 108.999 94.9014 108.792C95.458 108.393 96.0083 107.988 96.5504 107.572C96.8359 107.352 97.1173 107.129 97.3987 106.903C97.9324 106.477 98.46 106.041 98.9793 105.596C99.2462 105.368 99.5131 105.139 99.7738 104.907C100.303 104.437 100.823 103.955 101.336 103.467C101.568 103.246 101.803 103.026 102.033 102.803C102.588 102.257 103.13 101.698 103.661 101.131C103.831 100.949 104.007 100.773 104.177 100.591C104.87 99.8359 105.548 99.0662 106.202 98.2779L106.204 98.2759C102.195 81.9352 89.7352 68.9483 73.7338 64.1255Z" fill="#C6C3BD"/>
</svg>
